<?xml version="1.0" standalone="no"?>
<!DOCTYPE svg PUBLIC "-//W3C//DTD SVG 20010904//EN"
 "http://www.w3.org/TR/2001/REC-SVG-20010904/DTD/svg10.dtd">
<svg version="1.0" xmlns="http://www.w3.org/2000/svg"
 width="446.000000pt" height="446.000000pt" viewBox="0 0 446.000000 446.000000"
 preserveAspectRatio="xMidYMid meet">
<metadata>
Created by potrace 1.11, written by Peter Selinger 2001-2013
</metadata>
<g transform="translate(0.000000,446.000000) scale(0.100000,-0.100000)"
fill="#000000" stroke="none">
<path d="M0 2225 l0 -2225 2225 0 2225 0 0 2225 0 2225 -2225 0 -2225 0 0
-2225z m2455 891 c32 -14 35 -18 35 -59 0 -55 -33 -121 -106 -212 -106 -134
-159 -198 -215 -264 -85 -100 -168 -216 -254 -353 -42 -68 -89 -141 -105 -164
-27 -41 -28 -43 -39 -290 -21 -455 -31 -598 -47 -615 -17 -19 -96 -59 -116
-59 -24 0 -64 36 -81 73 -18 38 -15 93 22 392 31 251 43 418 32 465 -5 23 -11
43 -13 44 -116 73 -169 125 -356 351 -10 11 -28 34 -40 50 -13 17 -67 76 -120
133 -129 138 -129 138 -105 164 27 30 108 68 144 68 25 0 44 -13 103 -72 39
-40 116 -129 171 -198 126 -160 178 -217 234 -257 52 -39 86 -42 115 -10 78
84 202 240 390 492 119 160 225 300 236 313 22 26 64 29 115 8z m409 -750 c50
-21 86 -65 86 -105 0 -46 -33 -81 -75 -81 -41 0 -45 5 -32 45 32 104 -97 153
-189 72 -66 -57 -92 -150 -102 -365 l-7 -132 33 -6 c19 -4 65 -4 103 -2 67 5
69 5 69 -18 0 -31 -25 -37 -126 -29 l-84 7 0 -81 c0 -106 -26 -394 -46 -501
-38 -207 -103 -329 -205 -385 -109 -59 -268 -22 -269 64 0 24 24 50 49 51 7 0
22 -11 33 -25 52 -67 153 -74 209 -15 74 77 107 256 116 634 l6 259 -66 -5
c-37 -2 -67 -1 -67 3 0 16 45 39 75 39 52 0 56 9 71 145 17 151 42 244 85 308
34 52 89 99 141 122 42 18 149 19 192 1z"/>
</g>
</svg>
